<?xml version="1.0" standalone="no"?>
<!DOCTYPE svg PUBLIC "-//W3C//DTD SVG 1.0//EN" "http://www.w3.org/TR/2001/REC-SVG-20010904/DTD/svg10.dtd">
<svg xmlns="http://www.w3.org/2000/svg" xmlns:xlink="http://www.w3.org/1999/xlink" id="body_1" width="2048" height="1536">

<g transform="matrix(2 0 0 2 0 0)">
	<g transform="matrix(1.2162964 0 0 1.2162964 -0 21.96939)">
		<g>
            <path d="M666.3 296.5C 666.3 264 625.6 233.2 563.2 214.1C 577.60004 150.5 571.2 99.90001 543 83.70001C 536.5 79.90001 528.9 78.10001 520.6 78.10001L520.6 78.10001L520.6 100.40001C 525.19995 100.40001 528.89996 101.30001 532 103.00001C 545.6 110.80001 551.5 140.5 546.9 178.70001C 545.80005 188.1 544 198.00002 541.80005 208.1C 522.2001 203.3 500.80005 199.6 478.30005 197.20001C 464.80005 178.70001 450.80005 161.90001 436.70004 147.20001C 469.30005 116.90001 499.90005 100.30001 520.7001 100.30001L520.7001 100.30001L520.7001 78C 493.20007 78 457.20007 97.6 420.80008 131.6C 384.4001 97.8 348.4001 78.40001 320.9001 78.40001L320.9001 78.40001L320.9001 100.70001C 341.6001 100.70001 372.30008 117.20001 404.9001 147.30002C 390.9001 162.00002 376.9001 178.70001 363.6001 197.20001C 341.0001 199.6 319.6001 203.30002 300.0001 208.20001C 297.7001 198.20001 296.0001 188.50002 294.80008 179.20001C 290.10007 141.00002 295.9001 111.30001 309.4001 103.40001C 312.4001 101.600006 316.30008 100.80001 320.9001 100.80001L320.9001 100.80001L320.9001 78.5C 312.5001 78.5 304.9001 80.3 298.30008 84.1C 270.20007 100.3 263.9001 150.79999 278.4001 214.20001C 216.20009 233.40001 175.70009 264.1 175.70009 296.5C 175.70009 329 216.40009 359.8 278.80008 378.9C 264.4001 442.5 270.80008 493.09998 299.0001 509.3C 305.5001 513.1 313.1001 514.89996 321.5001 514.89996C 349.0001 514.89996 385.0001 495.29996 421.4001 461.29996C 457.80008 495.09995 493.80008 514.49994 521.3001 514.49994C 529.70013 514.49994 537.3001 512.69995 543.9001 508.89993C 572.00006 492.69992 578.3001 442.19995 563.8001 378.79993C 625.8001 359.69992 666.3001 328.89993 666.3001 296.49994L666.3001 296.49994L666.3 296.5zM536.1 229.8C 532.39996 242.7 527.8 256 522.6 269.3C 518.5 261.3 514.19995 253.29999 509.49997 245.29999C 504.89996 237.29999 499.99997 229.49998 495.09998 221.9C 509.3 224 523 226.59999 536.1 229.79999zM490.3 336.3C 482.5 349.8 474.5 362.59998 466.19998 374.5C 451.3 375.8 436.19998 376.5 420.99997 376.5C 405.89996 376.5 390.79996 375.8 375.99997 374.6C 367.69998 362.7 359.59998 350 351.79996 336.6C 344.19995 323.5 337.29996 310.2 330.99997 296.80002C 337.19998 283.40002 344.19998 270.00003 351.69998 256.90002C 359.49997 243.40002 367.49997 230.60002 375.8 218.70003C 390.69998 217.40002 405.8 216.70003 421 216.70003C 436.1 216.70003 451.2 217.40002 466 218.60002C 474.3 230.50002 482.4 243.20003 490.2 256.60004C 497.80002 269.70004 504.7 283.00003 511 296.40002C 504.7 309.80002 497.8 323.2 490.3 336.30002zM522.6 323.3C 528 336.69998 532.6 350.09998 536.39996 363.09998C 523.3 366.3 509.49997 368.99997 495.19995 371.09998C 500.09995 363.39996 504.99994 355.49997 509.59995 347.39996C 514.19995 339.39996 518.49994 331.29996 522.6 323.29996zM421.2 430C 411.90002 420.4 402.6 409.7 393.40002 398C 402.40002 398.4 411.60004 398.7 420.90002 398.7C 430.30002 398.7 439.60004 398.5 448.7 398C 439.7 409.7 430.40002 420.4 421.2 430zM346.80002 371.1C 332.6 369 318.90002 366.4 305.80002 363.2C 309.50003 350.30002 314.1 337 319.30002 323.7C 323.40002 331.7 327.7 339.7 332.40002 347.7C 337.10004 355.7 341.90002 363.5 346.80002 371.1zM420.7 163C 430 172.6 439.30002 183.3 448.5 195C 439.5 194.6 430.3 194.3 421 194.3C 411.6 194.3 402.3 194.5 393.2 195C 402.2 183.3 411.5 172.6 420.7 163zM346.7 221.9C 341.80002 229.59999 336.90002 237.5 332.30002 245.59999C 327.7 253.59999 323.40002 261.59998 319.30002 269.59998C 313.90002 256.19998 309.30002 242.79997 305.50003 229.79997C 318.60004 226.69997 332.40002 223.99997 346.70004 221.89998zM256.2 347.09998C 220.80002 331.99997 197.90001 312.19998 197.90001 296.49997C 197.90001 280.79996 220.8 260.89996 256.2 245.89996C 264.80002 242.19997 274.2 238.89996 283.90002 235.79996C 289.60004 255.39996 297.10004 275.79996 306.40002 296.69995C 297.2 317.49994 289.80002 337.79996 284.2 357.29996C 274.30002 354.19995 264.90002 350.79996 256.2 347.09995zM310 490C 296.4 482.2 290.5 452.5 295.1 414.3C 296.2 404.9 298 395 300.2 384.9C 319.80002 389.69998 341.2 393.4 363.7 395.8C 377.2 414.3 391.2 431.09998 405.30002 445.8C 372.7 476.09998 342.1 492.69998 321.30002 492.69998C 316.80002 492.59998 313.00003 491.69998 310.00003 489.99997zM547.2 413.8C 551.9 452 546.10004 481.69998 532.60004 489.59998C 529.60004 491.39996 525.7 492.19998 521.10004 492.19998C 500.40002 492.19998 469.70004 475.69998 437.10004 445.59998C 451.10004 430.89996 465.10004 414.19998 478.40002 395.69998C 501.00003 393.3 522.4 389.59998 542 384.69998C 544.3 394.8 546.1 404.49997 547.2 413.8zM585.7 347.09998C 577.10004 350.8 567.7 354.09998 558 357.19998C 552.3 337.59998 544.8 317.19998 535.5 296.3C 544.7 275.5 552.1 255.19998 557.7 235.69998C 567.60004 238.79999 577 242.19998 585.8 245.89998C 621.2 260.99997 644.1 280.8 644.1 296.49997C 644 312.19998 621.1 332.09998 585.69995 347.09998z" stroke="none" fill="#61DAFB" fill-rule="nonzero" />
            <path d="M466.6 296.5C 466.60004 309.11972 462.13828 319.8913 453.21478 328.8148C 444.29132 337.73828 433.5197 342.2 420.9 342.2C 408.28027 342.2 397.5087 337.73828 388.5852 328.8148C 379.66174 319.8913 375.2 309.11972 375.19998 296.5C 375.2 283.8803 379.66174 273.1087 388.5852 264.1852C 397.5087 255.26175 408.28027 250.80002 420.9 250.8C 433.5197 250.80002 444.29132 255.26175 453.21478 264.1852C 462.13828 273.1087 466.60004 283.8803 466.6 296.5C 466.60004 297.0318 466.59073 297.56345 466.57214 298.0949" stroke="none" fill="#61DAFB" fill-rule="nonzero" />
            <path d="" stroke="none" fill="#61DAFB" fill-rule="nonzero" />
		</g>
	</g>
</g>
</svg>